<svg width="46" height="46" viewBox="0 0 46 46" fill="none" xmlns="http://www.w3.org/2000/svg">
<mask id="mask0_14492_81" style="mask-type:alpha" maskUnits="userSpaceOnUse" x="0" y="0" width="46" height="46">
<circle cx="23" cy="23" r="23" fill="#0BCAD4"/>
</mask>
<g mask="url(#mask0_14492_81)">
<circle cx="23" cy="23" r="23" fill="#0BCAD4"/>
<ellipse cx="23" cy="32" rx="15" ry="3" fill="#0AA8B0"/>
<path d="M21.9785 11.901C19.4449 9.36736 15.3371 9.36736 12.8034 11.901C10.2698 14.4346 10.2698 18.5424 12.8034 21.0761L13.8407 22.1133L23.0158 31.2884L23.6889 21.1034L23.0158 12.9383L21.9785 11.901Z" fill="#E06379"/>
<path d="M33.2282 11.9002C30.6945 9.36659 26.5867 9.36659 24.0531 11.9002L23.0158 12.9375V31.2877L32.1909 22.1126L33.2282 21.0753C35.7618 18.5417 35.7618 14.4339 33.2282 11.9002Z" fill="#C63C50"/>
<path d="M14.7616 14.7308H13.4677C12.0514 14.7308 10.9032 15.879 10.9032 17.2953V25.8306L11.8516 27.1949V28.6576H14.7616L15.0733 26.9028L14.7616 23.5157V14.7308Z" fill="#F6DCCD"/>
<path d="M17.8639 19.8351C16.9345 19.8351 16.181 20.5885 16.181 21.5179V22.8049H14.7616V28.6576H17.9221V27.1949L18.6711 25.8862V19.8351H17.8639Z" fill="#F1CBBC"/>
<path d="M10.9032 28.2866H15.0733V31.7316H10.9032V28.2866Z" fill="#6B66D0"/>
<path d="M14.7616 28.2866H18.6711V31.7316H14.7616V28.2866Z" fill="#524798"/>
<path d="M31.2699 14.7308H32.5638C33.9802 14.7308 35.1283 15.879 35.1283 17.2954V25.8306L34.1799 27.1949V28.6576H31.2699L30.9583 26.9028L31.2699 23.5157V14.7308H31.2699Z" fill="#F1CBBC"/>
<path d="M28.1677 19.8351C29.0971 19.8351 29.8505 20.5885 29.8505 21.5179V22.8049H31.2699V28.6576H28.1095V27.1949L27.3605 25.8862V19.8351H28.1677Z" fill="#F6DCCD"/>
<path d="M30.9583 28.2866H35.1284V31.7316H30.9583V28.2866Z" fill="#524798"/>
<path d="M27.3605 28.2866H31.27V31.7316H27.3605V28.2866Z" fill="#6B66D0"/>
</g>
</svg>
