<svg width="130" height="130" viewBox="0 0 130 130" fill="none" xmlns="http://www.w3.org/2000/svg">
<circle cx="65" cy="65" r="64.5" stroke="#E9E9E9"/>
<mask id="mask0_352_83" style="mask-type:alpha" maskUnits="userSpaceOnUse" x="10" y="10" width="110" height="110">
<circle cx="65" cy="65" r="55" fill="#7D8797"/>
</mask>
<g mask="url(#mask0_352_83)">
<circle cx="65" cy="65" r="55" fill="#7D8797"/>
<circle cx="65" cy="45" r="20" fill="#C3CAD6"/>
<circle cx="64.5" cy="115.5" r="43.5" fill="#C3CAD6"/>
</g>
<circle cx="109" cy="107" r="17" fill="#0BCAD4" stroke="white" stroke-width="4"/>
<path d="M113 106.74C113.279 106.74 113.506 106.835 113.682 107.026C113.873 107.202 113.968 107.429 113.968 107.708C113.968 107.987 113.873 108.221 113.682 108.412C113.506 108.588 113.279 108.676 113 108.676H109.568V112.086C109.568 112.365 109.473 112.599 109.282 112.79C109.106 112.981 108.879 113.076 108.6 113.076C108.321 113.076 108.087 112.981 107.896 112.79C107.72 112.599 107.632 112.365 107.632 112.086V108.676H104.2C103.921 108.676 103.687 108.588 103.496 108.412C103.32 108.221 103.232 107.987 103.232 107.708C103.232 107.429 103.32 107.202 103.496 107.026C103.687 106.835 103.921 106.74 104.2 106.74H107.632V103.308C107.632 103.029 107.72 102.802 107.896 102.626C108.087 102.435 108.321 102.34 108.6 102.34C108.879 102.34 109.106 102.435 109.282 102.626C109.473 102.802 109.568 103.029 109.568 103.308V106.74H113Z" fill="white"/>
</svg>
